<svg xmlns="http://www.w3.org/2000/svg" viewBox="0 0 48 48">
  <radialGradient id="a" cx="-792" cy="24" r="18" fx="-792.095" fy="16.289" gradientTransform="translate(816)" gradientUnits="userSpaceOnUse">
    <stop offset="0" stop-color="#ffe16e"/>
    <stop offset=".629" stop-color="#ffd426"/>
    <stop offset=".72" stop-color="#fdcd23"/>
    <stop offset=".854" stop-color="#f8b919"/>
    <stop offset="1" stop-color="#f09c0c"/>
  </radialGradient>
  <circle cx="24" cy="24" r="18" fill="url(#a)"/>
  <path fill="#fff" d="M32.828 21.172a4 4 0 01-5.657 5.657s.559-1.973 2.121-3.536c1.563-1.562 3.536-2.121 3.536-2.121z"/>
  <path fill="#212121" d="M28.148 24.755a2 2 0 102.607-2.607 8.168 8.168 0 00-1.462 1.145c-.473.473-.844.98-1.145 1.462z"/>
  <path fill="#fff" d="M15.172 21.172a4 4 0 005.657 5.657s-.559-1.973-2.121-3.536c-1.563-1.562-3.536-2.121-3.536-2.121z"/>
  <path fill="#212121" d="M19.852 24.755a2 2 0 11-2.607-2.607c.482.301.989.672 1.462 1.145s.844.98 1.145 1.462z"/>
  <radialGradient id="b" cx="54.619" cy="-4.469" r="3.326" gradientTransform="matrix(.0157 1.116 -3.2952 .1212 8.414 -29.701)" gradientUnits="userSpaceOnUse">
    <stop offset=".629" stop-color="#ffe16e"/>
    <stop offset=".871" stop-color="#ffe16e" stop-opacity="0"/>
  </radialGradient>
  <path fill="url(#b)" d="M19.17 33.252S20.286 34 24 34c3.44 0 4.827-.748 4.827-.748s-.863-1.485-4.827-1.485-4.83 1.485-4.83 1.485z"/>
  <radialGradient id="c" cx="117.927" cy="-1071.793" r="8.277" gradientTransform="matrix(-.618 0 0 -.3776 96.897 -372.926)" gradientUnits="userSpaceOnUse">
    <stop offset=".284" stop-color="#cc9000"/>
    <stop offset="1" stop-color="#cc9000" stop-opacity="0"/>
  </radialGradient>
  <path fill="url(#c)" d="M24 33c3.392 0 4.31.609 4.31.609S27.43 35 24 35s-4.31-1.391-4.31-1.391S20.608 33 24 33z"/>
  <radialGradient id="d" cx="-898.878" cy="-853.625" r="15.654" gradientTransform="matrix(.35 0 0 -.1877 338.596 -127.667)" gradientUnits="userSpaceOnUse">
    <stop offset="0" stop-color="#1c1911"/>
    <stop offset=".999" stop-color="#171714"/>
  </radialGradient>
  <path fill="url(#d)" d="M28.701 33.195c.501.276.995-.358.608-.779C28.185 31.194 26.458 30 24 30s-4.185 1.194-5.309 2.416c-.387.421.107 1.055.608.779C20.45 32.559 22.024 32 24 32s3.55.559 4.701 1.195z"/>
  <path fill="#805b2a" d="M35.5 21.019c-.912.046-1.804.089-2.616.269a4.897 4.897 0 00-2.131 1.039c-.612.508-1.126 1.169-1.582 1.881-.469.704-.854 1.491-1.267 2.258l-.019.036a1.017 1.017 0 01-1.789-.965l.002-.004c.454-.833.94-1.653 1.554-2.417.607-.761 1.299-1.496 2.156-2.072a6.377 6.377 0 012.858-1.054c.989-.113 1.927-.054 2.835-.01a.52.52 0 01-.001 1.039zM12.5 19.981c.908-.044 1.847-.103 2.835.01a6.381 6.381 0 012.858 1.054c.857.576 1.549 1.31 2.156 2.072.614.765 1.099 1.584 1.554 2.417a1.017 1.017 0 01-1.784.974l-.002-.004-.019-.036c-.414-.767-.799-1.555-1.267-2.258-.457-.712-.971-1.373-1.582-1.881a4.892 4.892 0 00-2.131-1.039c-.813-.18-1.705-.223-2.616-.269a.52.52 0 01-.002-1.04z"/>
</svg>
