<svg xmlns="http://www.w3.org/2000/svg" viewBox="0 0 48 48">
  <radialGradient id="a" cx="24" cy="24" r="18" fx="23.905" fy="16.289" gradientUnits="userSpaceOnUse">
    <stop offset="0" stop-color="#ffe16e"/>
    <stop offset=".629" stop-color="#ffd226"/>
    <stop offset=".75" stop-color="#fdcd23"/>
    <stop offset=".899" stop-color="#f6bd1b"/>
    <stop offset=".999" stop-color="#f0af13"/>
  </radialGradient>
  <circle cx="24" cy="24" r="18" fill="url(#a)"/>
  <radialGradient id="b" cx="24.101" cy="29.227" r="10.381" gradientUnits="userSpaceOnUse">
    <stop offset=".819" stop-color="#cc9000"/>
    <stop offset=".988" stop-color="#fbbc23" stop-opacity=".069"/>
    <stop offset="1" stop-color="#ffbf26" stop-opacity="0"/>
  </radialGradient>
  <path fill="url(#b)" d="M24 38c-3.484 0-6.64-1.378-8.974-3.609C16.653 37.709 20.055 40 24 40s7.347-2.291 8.974-5.609A12.944 12.944 0 0124 38z"/>
  <circle cx="30" cy="20" r="4" fill="#fff"/>
  <circle cx="30" cy="20" r="2" fill="#212121"/>
  <circle cx="18" cy="20" r="4" fill="#fff"/>
  <circle cx="18" cy="20" r="2" fill="#212121"/>
  <radialGradient id="c" cx="24" cy="26.779" r="11.171" fx="23.992" fy="27.198" gradientUnits="userSpaceOnUse">
    <stop offset=".371" stop-color="#ffd226"/>
    <stop offset=".948" stop-color="#ffe16e"/>
    <stop offset="1" stop-color="#ffe16e" stop-opacity="0"/>
  </radialGradient>
  <path fill="url(#c)" d="M35 26s.139 12-11 12-11-12-11-12h22z"/>
  <radialGradient id="d" cx="24.15" cy="25.589" r="11.863" gradientUnits="userSpaceOnUse">
    <stop offset="0" stop-color="#1c1911"/>
    <stop offset=".999" stop-color="#171714"/>
  </radialGradient>
  <path fill="url(#d)" d="M35 26c0 6.075-4.925 11-11 11s-11-4.925-11-11h22z"/>
  <radialGradient id="e" cx="24" cy="38.731" r="5.91" gradientTransform="matrix(0 1 -.9954 0 62.553 14.731)" gradientUnits="userSpaceOnUse">
    <stop offset=".456" stop-color="#db4a59"/>
    <stop offset=".602" stop-color="#d84756"/>
    <stop offset=".729" stop-color="#cd3e4d"/>
    <stop offset=".85" stop-color="#bb303e"/>
    <stop offset=".965" stop-color="#a21b29"/>
    <stop offset=".999" stop-color="#991421"/>
  </radialGradient>
  <path fill="url(#e)" d="M25 33c-.516 0-1 .5-1 .5s-.484-.5-1-.5c-2.081 0-3.426 1.959-3.426 1.959a9.928 9.928 0 008.852 0S27.081 33 25 33z"/>
  <linearGradient id="f" x1="15" x2="33" y1="28.5" y2="28.5" gradientUnits="userSpaceOnUse">
    <stop offset=".001" stop-color="#968f72"/>
    <stop offset=".048" stop-color="#b2ad97"/>
    <stop offset=".098" stop-color="#cac6b7"/>
    <stop offset=".153" stop-color="#dddbd2"/>
    <stop offset=".213" stop-color="#ecebe6"/>
    <stop offset=".281" stop-color="#f7f6f4"/>
    <stop offset=".363" stop-color="#fdfdfc"/>
    <stop offset=".5" stop-color="#fff"/>
    <stop offset=".637" stop-color="#fdfdfc"/>
    <stop offset=".719" stop-color="#f7f6f4"/>
    <stop offset=".787" stop-color="#ecebe6"/>
    <stop offset=".847" stop-color="#dddbd2"/>
    <stop offset=".902" stop-color="#cac6b7"/>
    <stop offset=".952" stop-color="#b2ad97"/>
    <stop offset="1" stop-color="#968f72"/>
  </linearGradient>
  <path fill="url(#f)" d="M15 27v1a2 2 0 002 2h14a2 2 0 002-2v-1H15z"/>
</svg>
