<svg xmlns="http://www.w3.org/2000/svg" viewBox="0 0 48 48">
  <radialGradient id="a" cx="24" cy="24" r="18" fx="23.905" fy="16.289" gradientUnits="userSpaceOnUse">
    <stop offset="0" stop-color="#ffe16e"/>
    <stop offset=".629" stop-color="#ffd226"/>
    <stop offset=".75" stop-color="#fdcd23"/>
    <stop offset=".899" stop-color="#f6bd1b"/>
    <stop offset=".999" stop-color="#f0af13"/>
  </radialGradient>
  <circle cx="24" cy="24" r="18" fill="url(#a)"/>
  <radialGradient id="b" cx="36" cy="27" r="5" gradientUnits="userSpaceOnUse">
    <stop offset="0" stop-color="#ff8400" stop-opacity=".6"/>
    <stop offset=".999" stop-color="#ff8400" stop-opacity="0"/>
  </radialGradient>
  <circle cx="36" cy="27" r="5" fill="url(#b)"/>
  <radialGradient id="c" cx="12" cy="27" r="5" gradientUnits="userSpaceOnUse">
    <stop offset="0" stop-color="#ff8400" stop-opacity=".5"/>
    <stop offset=".999" stop-color="#ff8400" stop-opacity="0"/>
  </radialGradient>
  <circle cx="12" cy="27" r="5" fill="url(#c)"/>
  <radialGradient id="d" cx="23.988" cy="29.43" r="5.577" fx="23.984" fy="29.639" gradientUnits="userSpaceOnUse">
    <stop offset=".914" stop-color="#ffe16e"/>
    <stop offset="1" stop-color="#ffe16e" stop-opacity="0"/>
  </radialGradient>
  <path fill="url(#d)" d="M24 33c-4.106 0-5.336-1.456-5.336-1.456S19.98 35 24 35v-.001V35c4.02 0 5.336-3.456 5.336-3.456S28.106 33 24 33z"/>
  <radialGradient id="e" cx="24.046" cy="31.778" r="5.044" gradientUnits="userSpaceOnUse">
    <stop offset=".696" stop-color="#cc9000"/>
    <stop offset="1" stop-color="#cc9000" stop-opacity="0"/>
  </radialGradient>
  <path fill="url(#e)" d="M24 35c-3.51 0-5-2.767-5-2.767S20.058 37 24 37s5-4.767 5-4.767S27.51 35 24 35z"/>
  <radialGradient id="f" cx="24" cy="28.913" r="15.654" gradientTransform="matrix(-.35 0 0 .1877 32.4 26.03)" gradientUnits="userSpaceOnUse">
    <stop offset="0" stop-color="#1c1911"/>
    <stop offset=".999" stop-color="#171714"/>
  </radialGradient>
  <path fill="url(#f)" d="M19.299 30.805c-.501-.276-.995.358-.608.779C19.815 32.806 21.542 34 24 34s4.185-1.194 5.309-2.416c.387-.421-.107-1.055-.608-.779C27.55 31.441 25.976 32 24 32s-3.55-.559-4.701-1.195z"/>
  <radialGradient id="g" cx="35.039" cy="8.227" r="5.739" gradientUnits="userSpaceOnUse">
    <stop offset="0" stop-color="#ff7666"/>
    <stop offset=".126" stop-color="#fb6c59"/>
    <stop offset=".714" stop-color="#ec4023"/>
    <stop offset="1" stop-color="#e62f0e"/>
  </radialGradient>
  <path fill="url(#g)" d="M39.273 6C37.92 6 37 6.909 37 6.909S36.085 6 34.727 6A2.727 2.727 0 0032 8.727c0 2.727 5 5.455 5 5.455s5-2.727 5-5.455A2.727 2.727 0 0039.273 6z"/>
  <radialGradient id="h" cx="37.431" cy="34.905" r="4.729" gradientUnits="userSpaceOnUse">
    <stop offset="0" stop-color="#ff7666"/>
    <stop offset=".126" stop-color="#fb6c59"/>
    <stop offset=".714" stop-color="#ec4023"/>
    <stop offset="1" stop-color="#e62f0e"/>
  </radialGradient>
  <path fill="url(#h)" d="M40.818 33c-1.082 0-1.818.727-1.818.727S38.268 33 37.182 33A2.182 2.182 0 0035 35.182C35 37.364 39 40 39 40s4-2.636 4-4.818A2.182 2.182 0 0040.818 33z"/>
  <radialGradient id="i" cx="6.646" cy="31.672" r="6.887" gradientUnits="userSpaceOnUse">
    <stop offset="0" stop-color="#ff7666"/>
    <stop offset=".126" stop-color="#fb6c59"/>
    <stop offset=".714" stop-color="#ec4023"/>
    <stop offset="1" stop-color="#e62f0e"/>
  </radialGradient>
  <path fill="url(#i)" d="M11.727 29C10.104 29 9 30.091 9 30.091S7.902 29 6.273 29A3.273 3.273 0 003 32.273c0 3.273 6 6.545 6 6.545s6-3.273 6-6.545A3.273 3.273 0 0011.727 29z"/>
  <circle cx="34.5" cy="22.5" r=".5" fill="#212121"/>
  <path fill="#212121" d="M27.742 22.939s1.726-.944 3.258-.944 3.258.944 3.258.944l.631-.754S33.124 20 31 20s-3.889 2.185-3.889 2.185l.631.754z"/>
  <circle cx="27.5" cy="22.5" r=".5" fill="#212121"/>
  <g fill="#212121">
    <circle cx="20.5" cy="22.5" r=".5"/>
    <path d="M13.742 22.939s1.726-.944 3.258-.944 3.258.944 3.258.944l.631-.754S19.124 20 17 20s-3.889 2.185-3.889 2.185l.631.754z"/>
    <circle cx="13.5" cy="22.5" r=".5"/>
  </g>
</svg>
