<svg xmlns="http://www.w3.org/2000/svg" viewBox="0 0 48 48">
  <radialGradient id="a" cx="-112" cy="24" r="18" fx="-112.095" fy="16.289" gradientTransform="translate(136)" gradientUnits="userSpaceOnUse">
    <stop offset="0" stop-color="#ffe16e"/>
    <stop offset=".629" stop-color="#ffd426"/>
    <stop offset=".72" stop-color="#fdcd23"/>
    <stop offset=".854" stop-color="#f8b919"/>
    <stop offset="1" stop-color="#f09c0c"/>
  </radialGradient>
  <circle cx="24" cy="24" r="18" fill="url(#a)"/>
  <path fill="#805b2a" d="M34.432 14.995a10.788 10.788 0 01-1.952-.404 13.285 13.285 0 01-1.847-.698 14.272 14.272 0 01-3.35-2.173 1.02 1.02 0 111.434-1.441c.76.867 1.646 1.644 2.64 2.281.494.323 1.019.602 1.559.85.534.244 1.118.46 1.652.594l.038.009a.5.5 0 01-.174.982zM13.432 14.005a9.852 9.852 0 001.652-.594c.54-.248 1.065-.527 1.559-.85a12.493 12.493 0 002.64-2.281 1.018 1.018 0 111.433 1.44 14.261 14.261 0 01-3.35 2.173c-.598.282-1.219.509-1.847.698-.637.187-1.254.331-1.952.404a.5.5 0 01-.173-.981l.038-.009z"/>
  <circle cx="34.5" cy="18.5" r=".5" fill="#212121"/>
  <path fill="#212121" d="M27.742 18.939s1.726-.944 3.258-.944 3.258.944 3.258.944l.631-.754S33.124 16 31 16s-3.889 2.185-3.889 2.185l.631.754z"/>
  <circle cx="27.5" cy="18.5" r=".5" fill="#212121"/>
  <circle cx="20.5" cy="18.5" r=".5" fill="#212121"/>
  <path fill="#212121" d="M13.742 18.939s1.726-.944 3.258-.944 3.258.944 3.258.944l.631-.754S19.124 16 17 16s-3.889 2.185-3.889 2.185l.631.754z"/>
  <circle cx="13.5" cy="18.5" r=".5" fill="#212121"/>
  <radialGradient id="b" cx="24" cy="30.966" r="6.017" gradientUnits="userSpaceOnUse">
    <stop offset=".899" stop-color="#ffe16e"/>
    <stop offset="1" stop-color="#ffe16e" stop-opacity="0"/>
  </radialGradient>
  <circle cx="24" cy="31" r="6" fill="url(#b)"/>
  <radialGradient id="c" cx="24" cy="29.4" r="6.307" gradientUnits="userSpaceOnUse">
    <stop offset="0" stop-color="#1c1911"/>
    <stop offset=".999" stop-color="#171714"/>
  </radialGradient>
  <path fill="url(#c)" d="M30 28.8a6 6 0 10-12 0V30a6 6 0 1012 0v-1.2z"/>
  <radialGradient id="d" cx="24" cy="29.4" r="6.307" gradientTransform="matrix(1 0 0 1.0606 0 -2.182)" gradientUnits="userSpaceOnUse">
    <stop offset="0" stop-color="#1c1911"/>
    <stop offset=".999" stop-color="#171714"/>
  </radialGradient>
  <path fill="url(#d)" d="M30 28.364C30 24.849 27.314 22 24 22s-6 2.849-6 6.364v1.273C18 33.151 20.686 36 24 36s6-2.849 6-6.364v-1.272z"/>
  <radialGradient id="e" cx="-61.094" cy=".057" r="4.383" gradientTransform="matrix(1.3333 0 0 1.74 105.333 30.924)" gradientUnits="userSpaceOnUse">
    <stop offset=".696" stop-color="#cc9000"/>
    <stop offset="1" stop-color="#cc9000" stop-opacity="0"/>
  </radialGradient>
  <path fill="url(#e)" d="M24 37c-5.56 0-6-6.05-6-6.05s.323 7.8 6 7.8 6-7.8 6-7.8S29.56 37 24 37z"/>
  <g>
    <path fill="#fff" d="M16.749 40.5a4.903 4.903 0 01-3.97-2.031l-1.044-1.449a3.062 3.062 0 01-.532-1.31 1.317 1.317 0 01-.061-.221c-.268-1.578-.028-4.176.023-4.69l-.65-2.768c-.034-.333.047-.587.216-.787.17-.2.407-.322.669-.343a2.916 2.916 0 013.129 2.651l.161 1.485c.466-.361 1.055-.831 1.407-1.159 1.215-1.128 2.534-2.977 3.097-3.766.11-.153.192-.269.242-.334.421-.557.942-1.125 1.615-1.125.203 0 .403.052.596.155.857.461.683 1.713.37 2.394a8.03 8.03 0 01-.219.446c.121-.118.236-.227.342-.322.584-.529 1.096-.787 1.566-.787.326 0 .628.127.872.365.697.679.368 1.752-.231 2.462-.16.189-.33.38-.505.57.489-.319.872-.464 1.222-.464.354 0 .666.151.901.438.262.319.755 1.174-.326 2.222-.155.15-.462.412-.834.725.155-.049.308-.074.456-.074.48 0 .883.263 1.104.72.568 1.176-.806 2.023-1.322 2.343-.017.011-2.346 1.501-3.222 2.132l-2.222 1.601a4.842 4.842 0 01-2.85.921z"/>
    <path fill="#1c1911" d="M21.051 25.154a.75.75 0 01.359.096c.528.284.382 1.244.153 1.745-1.011 2.207-2.814 3.546-2.573 3.785a.094.094 0 00.071.026c.473 0 2.389-2.178 3.416-3.109.456-.414.872-.656 1.229-.656.193 0 .368.07.524.222.484.472.153 1.288-.264 1.781-1.497 1.768-3.87 3.716-3.641 4.035.014.019.037.028.068.028.486 0 2.968-2.216 3.514-2.606.46-.329.843-.527 1.157-.527.199 0 .37.08.515.256.382.465.28.995-.288 1.546-.623.604-3.734 3.014-3.533 3.293.018.026.051.037.096.037.445 0 2.082-1.164 2.628-1.532.29-.196.554-.288.78-.288.29 0 .517.153.654.437.245.506-.02 1.01-1.134 1.699 0 0-2.354 1.505-3.251 2.151l-2.222 1.6a4.372 4.372 0 01-2.56.827 4.382 4.382 0 01-3.564-1.824l-1.043-1.449a2.578 2.578 0 01-.452-1.147c-.021-.055-.043-.109-.054-.173-.283-1.673.036-4.641.036-4.641l-.67-2.849a.48.48 0 01.439-.518 2.402 2.402 0 012.591 2.195l.258 2.381s1.473-1.102 2.149-1.729c1.484-1.378 3.093-3.763 3.396-4.164.396-.525.789-.928 1.216-.928m0-1c-.892 0-1.519.669-2.014 1.324-.051.067-.136.186-.249.344-.554.777-1.853 2.597-3.03 3.69-.176.164-.415.365-.668.571l-.065-.597c-.143-1.725-1.63-3.095-3.384-3.095-.094 0-.188.004-.284.012A1.482 1.482 0 0010.004 28l.006.074.017.072.632 2.686c-.065.682-.275 3.175-.01 4.742.018.103.043.192.068.262.095.547.301 1.043.613 1.476l1.043 1.449A5.406 5.406 0 0016.749 41a5.345 5.345 0 003.144-1.016l2.222-1.6c.864-.622 3.182-2.105 3.205-2.12.549-.339 2.26-1.396 1.496-2.977a1.77 1.77 0 00-.796-.826c1.09-1.082.889-2.188.332-2.866a1.647 1.647 0 00-1.159-.616c.388-.801.436-1.747-.265-2.431a1.725 1.725 0 00-1.222-.507c-.306 0-.619.078-.941.237.056-.779-.192-1.537-.881-1.907a1.734 1.734 0 00-.833-.217z"/>
  </g>
</svg>
