<svg xmlns="http://www.w3.org/2000/svg" viewBox="0 0 48 48">
  <radialGradient id="a" cx="17.311" cy="21.608" r="22.062" gradientTransform="matrix(1 0 0 .9024 0 2.109)" gradientUnits="userSpaceOnUse">
    <stop offset="0" stop-color="#ffe16e"/>
    <stop offset=".629" stop-color="#ffd226"/>
    <stop offset=".75" stop-color="#fdcd23"/>
    <stop offset=".899" stop-color="#f6bd1b"/>
    <stop offset=".999" stop-color="#f0af13"/>
  </radialGradient>
  <path fill="url(#a)" d="M6.265 20.892h3.128c1.834 0 3.569-.778 4.826-2.113a12.035 12.035 0 011.968-1.681c.146-.1.3-.177.449-.27l2.729-1.913 3.417-2.405.264-.281a8.45 8.45 0 001.992-3.59l.786-2.938a1.27 1.27 0 011.251-.955c3.73.277 4.355 6.85 1.462 13.512-.036.083-.089.216-.044.358.058.18.341.273.86.319.461.041 7.44.663 8.948.663.859 0-2.399 18.486-2.399 19.966 0 1.657-1.438 3.287-3.095 3.287-.003 0-14.022.322-16.705-.747-.939-.374-1.77-1.028-2.458-1.837-1.267-1.489-3.102-2.376-5.057-2.376H6.265c-.697 0-1.261-3.806-1.261-8.5s.564-8.499 1.261-8.499z"/>
  <g opacity=".87">
    <linearGradient id="b" x1="31.952" x2="23.261" y1="30.059" y2="32.611" gradientUnits="userSpaceOnUse">
      <stop offset="0" stop-color="#f4ba22" stop-opacity=".409"/>
      <stop offset="1" stop-color="#fbce32"/>
    </linearGradient>
    <path fill="url(#b)" d="M24.243 23.218a3.386 3.386 0 00.269 2.039c.379.802.333 1.755-.278 2.398a3.356 3.356 0 00-.929 2.412c.012.479.124.933.315 1.344.354.761.25 1.669-.3 2.304-.094.108-.18.223-.26.344a3.38 3.38 0 00-.548 1.865 3.255 3.255 0 00.316 1.392c.142.3.21.611.202.901a1.415 1.415 0 01-.177.671c-.069.12-.143.241-.228.355a2.218 2.218 0 00-.422 1.6c.129 1.138 1.308 2.026 2.453 2.054H28.036c1.628 0 2.752-.911 2.843-2.151a2.319 2.319 0 00-.682-1.827 3.385 3.385 0 001.851-3.01c0-1.116-.542-2.1-1.373-2.72-.022-.02-.015-.056.016-.068a3.39 3.39 0 002.123-3.14c0-1.197-.624-2.24-1.56-2.845-.026-.019-.017-.059.018-.069a3.388 3.388 0 002.391-3.754c-.246-1.689.734-3.795-.973-3.795l-4.048-.185a2.002 2.002 0 00-.431.013c-2.18.326-3.693 2.283-3.968 3.872z" opacity=".091"/>
    <linearGradient id="c" x1="33.502" x2="23.157" y1="28.159" y2="34.807" gradientUnits="userSpaceOnUse">
      <stop offset="0" stop-color="#f2b721" stop-opacity=".468"/>
      <stop offset="1" stop-color="#f9c930"/>
    </linearGradient>
    <path fill="url(#c)" d="M24.817 23.218a3.386 3.386 0 00.269 2.039c.379.802.333 1.755-.278 2.398a3.356 3.356 0 00-.929 2.403c.011.477.12.931.308 1.342.35.767.241 1.676-.316 2.309a3.046 3.046 0 00-.264.347 3.384 3.384 0 00-.546 1.883 3.233 3.233 0 00.334 1.401c.149.303.239.611.251.884.009.2-.016.441-.17.662-.08.114-.158.232-.247.343-.343.427-.518.97-.453 1.593.12 1.145 1.294 2.043 2.445 2.073H28.61c1.628 0 2.752-.911 2.843-2.151a2.319 2.319 0 00-.682-1.827 3.385 3.385 0 001.851-3.01 3.388 3.388 0 00-1.378-2.724c-.017-.019-.008-.052.023-.065a3.39 3.39 0 002.121-3.14c0-1.2-.628-2.246-1.567-2.85-.02-.018-.009-.055.026-.065a3.386 3.386 0 002.39-3.753c-.246-1.689.731-3.788-.976-3.788l-4.208-.072a2.081 2.081 0 00-.418.015c-2.165.323-3.544 2.166-3.818 3.753z" opacity=".182"/>
    <linearGradient id="d" x1="33.903" x2="24.075" y1="25.811" y2="37.154" gradientUnits="userSpaceOnUse">
      <stop offset="0" stop-color="#f0b320" stop-opacity=".527"/>
      <stop offset="1" stop-color="#f6c32d"/>
    </linearGradient>
    <path fill="url(#d)" d="M25.39 23.218a3.386 3.386 0 00.269 2.039c.379.802.333 1.755-.278 2.398a3.358 3.358 0 00-.929 2.394c.01.475.116.929.301 1.34.347.773.233 1.682-.332 2.314a3.012 3.012 0 00-.268.349 3.412 3.412 0 00-.545 1.901 3.154 3.154 0 00.352 1.411c.156.306.268.611.301.867.024.184.021.432-.163.654-.089.108-.173.222-.266.331-.36.417-.545.952-.485 1.586.111 1.152 1.28 2.06 2.436 2.093l.068.001h3.332c1.628 0 2.752-.911 2.843-2.151a2.319 2.319 0 00-.682-1.827 3.385 3.385 0 001.851-3.01 3.386 3.386 0 00-1.384-2.728c-.012-.018-.001-.049.03-.061a3.39 3.39 0 002.12-3.139 3.383 3.383 0 00-1.574-2.854c-.015-.017-.001-.05.033-.061a3.388 3.388 0 002.39-3.753c-.246-1.689.727-3.782-.98-3.782l-4.367.041a2.186 2.186 0 00-.405.017c-2.149.316-3.394 2.045-3.668 3.63z" opacity=".273"/>
    <linearGradient id="e" x1="33.009" x2="26.007" y1="23.794" y2="39.127" gradientUnits="userSpaceOnUse">
      <stop offset="0" stop-color="#eeb01f" stop-opacity=".586"/>
      <stop offset="1" stop-color="#f3be2a"/>
    </linearGradient>
    <path fill="url(#e)" d="M25.964 23.218a3.386 3.386 0 00.269 2.039c.379.802.333 1.755-.278 2.398a3.36 3.36 0 00-.93 2.292v.094c.009.473.113.926.294 1.338.343.779.224 1.689-.348 2.319a2.813 2.813 0 00-.272.352 3.424 3.424 0 00-.543 1.919 3.135 3.135 0 00.37 1.421c.163.309.296.611.35.85.038.168.058.422-.156.646-.098.102-.188.213-.286.319-.377.408-.572.933-.516 1.58.102 1.159 1.265 2.076 2.428 2.112l.072.001h3.337c1.628 0 2.752-.911 2.843-2.151a2.319 2.319 0 00-.682-1.827 3.385 3.385 0 001.851-3.01 3.387 3.387 0 00-1.389-2.732c-.007-.017.006-.045.036-.058a3.39 3.39 0 002.119-3.139 3.384 3.384 0 00-1.581-2.859c-.009-.016.006-.046.041-.057a3.388 3.388 0 002.39-3.753c-.246-1.689.723-3.775-.984-3.775l-4.527.155a2.22 2.22 0 00-.392.019c-2.132.308-3.242 1.924-3.516 3.507z" opacity=".364"/>
    <linearGradient id="f" x1="31.397" x2="28.899" y1="22.88" y2="40.258" gradientUnits="userSpaceOnUse">
      <stop offset="0" stop-color="#ecac1e" stop-opacity=".645"/>
      <stop offset="1" stop-color="#f0b827"/>
    </linearGradient>
    <path fill="url(#f)" d="M26.537 23.218a3.386 3.386 0 00.269 2.039c.379.802.333 1.755-.278 2.398a3.355 3.355 0 00-.929 2.283v.093a3.5 3.5 0 00.287 1.336c.339.786.216 1.695-.364 2.324a2.682 2.682 0 00-.276.355 3.439 3.439 0 00-.541 1.937 3.054 3.054 0 00.388 1.431c.17.312.324.61.399.833.051.151.097.414-.149.637-.106.097-.203.204-.305.306-.394.399-.599.915-.548 1.573.093 1.166 1.251 2.093 2.42 2.131l.076.001h3.343c1.628 0 2.752-.911 2.843-2.151a2.319 2.319 0 00-.682-1.827 3.385 3.385 0 001.851-3.01 3.386 3.386 0 00-1.395-2.736c-.002-.016.013-.042.043-.054a3.391 3.391 0 002.118-3.138 3.383 3.383 0 00-1.588-2.863c-.003-.015.014-.042.048-.052a3.387 3.387 0 002.389-3.753c-.246-1.689.72-3.769-.987-3.769l-4.687.268a2.376 2.376 0 00-.379.021c-2.115.304-3.092 1.805-3.366 3.387z" opacity=".455"/>
    <linearGradient id="g" x1="29.731" x2="32.23" y1="23.071" y2="40.448" gradientUnits="userSpaceOnUse">
      <stop offset="0" stop-color="#eaa91c" stop-opacity=".705"/>
      <stop offset="1" stop-color="#eeb325"/>
    </linearGradient>
    <path fill="url(#g)" d="M27.111 23.218a3.386 3.386 0 00.269 2.039c.379.802.333 1.755-.278 2.398a3.351 3.351 0 00-.929 2.275v.093c.006.469.105.922.28 1.334.335.792.208 1.702-.38 2.329a2.583 2.583 0 00-.28.357 3.459 3.459 0 00-.539 1.955c.009.297.057.585.145.854.065.196.155.397.261.586.177.315.35.609.449.816.064.135.136.407-.142.629-.114.092-.218.195-.324.294-.412.389-.626.897-.579 1.566.084 1.173 1.237 2.11 2.411 2.151l.081.001h3.348c1.628 0 2.752-.911 2.843-2.151a2.319 2.319 0 00-.682-1.827 3.385 3.385 0 001.851-3.01 3.387 3.387 0 00-1.4-2.74c.003-.015.02-.039.05-.051a3.392 3.392 0 002.117-3.138c0-1.212-.64-2.266-1.595-2.868.003-.014.022-.038.055-.048a3.387 3.387 0 002.389-3.753c-.246-1.689.716-3.762-.991-3.762l-4.846.382c-.124 0-.247.006-.366.023-2.102.299-2.945 1.686-3.218 3.266z" opacity=".545"/>
    <linearGradient id="h" x1="28.141" x2="35.454" y1="23.549" y2="39.563" gradientUnits="userSpaceOnUse">
      <stop offset="0" stop-color="#e8a51b" stop-opacity=".764"/>
      <stop offset="1" stop-color="#ebad22"/>
    </linearGradient>
    <path fill="url(#h)" d="M27.685 23.218a3.386 3.386 0 00.269 2.039c.379.802.333 1.755-.278 2.398a3.352 3.352 0 00-.929 2.267v.092c.005.466.101.919.273 1.332.331.798.199 1.709-.396 2.335a2.518 2.518 0 00-.284.36 3.479 3.479 0 00-.538 1.972 2.96 2.96 0 00.424 1.449c.184.318.376.609.498.799.076.119.176.4-.134.621a4.116 4.116 0 00-.343.282c-.429.379-.653.878-.611 1.559.075 1.18 1.222 2.127 2.403 2.17l.085.001h3.354c1.628 0 2.752-.911 2.843-2.151a2.319 2.319 0 00-.682-1.827 3.385 3.385 0 001.851-3.01c0-1.13-.557-2.126-1.406-2.744a.117.117 0 01.057-.047 3.39 3.39 0 002.115-3.137 3.384 3.384 0 00-1.602-2.872.117.117 0 01.063-.044 3.386 3.386 0 002.388-3.753c-.246-1.689.712-3.756-.995-3.756l-5.006.495c-.12.002-.239.009-.353.026-2.085.292-2.794 1.566-3.066 3.144z" opacity=".636"/>
    <linearGradient id="i" x1="26.97" x2="37.818" y1="24.984" y2="37.503" gradientUnits="userSpaceOnUse">
      <stop offset="0" stop-color="#e6a21a" stop-opacity=".823"/>
      <stop offset="1" stop-color="#e8a81f"/>
    </linearGradient>
    <path fill="url(#i)" d="M28.258 23.218a3.386 3.386 0 00.269 2.039c.379.802.333 1.755-.278 2.398a3.352 3.352 0 00-.929 2.351c.004.464.097.917.266 1.33.327.804.191 1.715-.412 2.34-.103.107-.2.227-.288.363a3.49 3.49 0 00-.536 1.99 2.931 2.931 0 00.442 1.46c.191.321.4.609.547.782.088.103.216.395-.127.613-.13.083-.249.176-.362.27-.447.368-.68.86-.642 1.553.066 1.187 1.208 2.144 2.394 2.19l.09.002h3.359c1.628 0 2.752-.911 2.843-2.151a2.319 2.319 0 00-.682-1.827 3.385 3.385 0 001.851-3.01 3.387 3.387 0 00-1.411-2.748.196.196 0 01.063-.044 3.39 3.39 0 002.114-3.137 3.382 3.382 0 00-1.609-2.876.187.187 0 01.07-.039 3.388 3.388 0 002.388-3.753c-.246-1.689.709-3.749-.998-3.749l-5.165.608c-.116.004-.23.012-.34.028-2.07.281-2.644 1.441-2.917 3.017z" opacity=".727"/>
    <linearGradient id="j" x1="26.745" x2="38.788" y1="27.151" y2="34.891" gradientUnits="userSpaceOnUse">
      <stop offset="0" stop-color="#e49e19" stop-opacity=".882"/>
      <stop offset="1" stop-color="#e5a21c"/>
    </linearGradient>
    <path fill="url(#j)" d="M28.832 23.218a3.386 3.386 0 00.269 2.039c.379.802.333 1.755-.278 2.398a3.358 3.358 0 00-.929 2.251l-.001.091c.002.462.094.915.259 1.328.324.81.182 1.722-.428 2.345a2.336 2.336 0 00-.292.365 3.511 3.511 0 00-.534 2.008 2.893 2.893 0 00.461 1.469c.198.324.423.611.597.765.099.088.256.39-.12.604a3.377 3.377 0 00-.381.257c-.465.359-.706.841-.674 1.546.058 1.194 1.193 2.161 2.386 2.209l.094.002h3.365c1.628 0 2.752-.911 2.843-2.151a2.319 2.319 0 00-.682-1.827 3.385 3.385 0 001.851-3.01 3.386 3.386 0 00-1.417-2.752.435.435 0 01.07-.04 3.392 3.392 0 002.113-3.136 3.384 3.384 0 00-1.616-2.881.416.416 0 01.078-.035 3.388 3.388 0 002.388-3.753c-.246-1.689.705-3.743-1.002-3.743l-5.325.722a3.744 3.744 0 00-.327.03c-2.056.279-2.496 1.325-2.768 2.899z" opacity=".818"/>
    <linearGradient id="k" x1="27.804" x2="38.261" y1="29.483" y2="32.554" gradientUnits="userSpaceOnUse">
      <stop offset="0" stop-color="#e29b18" stop-opacity=".941"/>
      <stop offset="1" stop-color="#e39d1a"/>
    </linearGradient>
    <path fill="url(#k)" d="M29.406 23.218a3.386 3.386 0 00.269 2.039c.379.802.333 1.755-.278 2.398a3.356 3.356 0 00-.929 2.243l-.001.09c.001.46.09.912.252 1.326.32.816.174 1.729-.444 2.35a2.243 2.243 0 00-.295.368 3.53 3.53 0 00-.533 2.026c.014.304.071.6.173.871.075.199.182.411.306.607.205.327.447.614.646.748.11.074.297.386-.113.596a3.04 3.04 0 00-.4.245c-.482.349-.733.823-.705 1.539.049 1.201 1.179 2.18 2.378 2.228l.098.002h3.37c1.628 0 2.752-.911 2.843-2.151a2.319 2.319 0 00-.682-1.827 3.385 3.385 0 001.851-3.01 3.388 3.388 0 00-1.422-2.756c.023-.012.049-.025.077-.037a3.39 3.39 0 002.112-3.136 3.385 3.385 0 00-1.623-2.885c.025-.009.054-.021.085-.031a3.387 3.387 0 002.387-3.752c-.246-1.689.702-3.736-1.005-3.736l-5.485.835a4.897 4.897 0 00-.314.032c-2.04.274-2.347 1.206-2.618 2.778z" opacity=".909"/>
    <linearGradient id="l" x1="27.924" x2="39.444" y1="31.239" y2="31.239" gradientUnits="userSpaceOnUse">
      <stop offset="0" stop-color="#e09717"/>
      <stop offset="1" stop-color="#e09717"/>
    </linearGradient>
    <path fill="url(#l)" d="M38.552 29.98a3.387 3.387 0 00-1.63-2.89 3.388 3.388 0 002.479-3.779c-.246-1.689.698-3.73-1.009-3.73l-5.644.948c-2.309.223-2.484 1.044-2.768 2.689a3.386 3.386 0 00.269 2.039c.379.802.333 1.755-.278 2.398a3.356 3.356 0 00-.93 2.324c0 .458.086.91.245 1.325.316.822.166 1.735-.46 2.355a2.155 2.155 0 00-.299.371c-.529.819-.704 2.012-.351 2.92.207.533.652 1.164 1.012 1.343.122.06.337.383-.106.588-.77.355-1.186.855-1.156 1.765.041 1.242 1.229 2.25 2.472 2.25h3.376c1.628 0 2.752-.911 2.843-2.151a2.319 2.319 0 00-.682-1.827 3.385 3.385 0 001.851-3.01c0-1.14-.566-2.144-1.428-2.76a3.391 3.391 0 002.194-3.168z"/>
  </g>
  <g opacity=".24">
    <linearGradient id="m" x1="6.822" x2="35.725" y1="30.984" y2="30.984" gradientUnits="userSpaceOnUse">
      <stop offset="0" stop-color="#efae13"/>
      <stop offset=".519" stop-color="#fccc24" stop-opacity=".536"/>
      <stop offset=".999" stop-color="#fccb23"/>
    </linearGradient>
    <path fill="url(#m)" d="M8.083 36.073h2.321c1.956 0 3.79.886 5.057 2.376.688.809 1.519 1.463 2.458 1.837 1.233.491 4.862.688 8.42.758.349.007.698.012 1.044.017 2.24.029 4.339.013 5.597-.002 1.073-.012 1.765-.052 1.814-.093a2.62 2.62 0 00.855-.222c.084-.299.087-.623.062-.972-.014-.2.005-.749.015-1.529-1.3.016-3.205.028-5.235.004a147.05 147.05 0 01-2.96-.062c-2.36-.076-4.578-.221-5.906-.485a5.246 5.246 0 01-.972-.276 5.973 5.973 0 01-1.593-1.011 9.53 9.53 0 01-.865-.864 6.698 6.698 0 00-3.525-2.112 7.164 7.164 0 00-1.601-.181h-.61c-.025 0-1.605-.053-1.623-.144-.556-.14-1.019-2.763-1.153-6.284a57.074 57.074 0 01-.037-2.297c.006-1.29.059-2.49.141-3.566a6.791 6.791 0 01-.65-.035c.003-.014-.368-.027-.364-.039h-.397c-.019 0-1.068.031-1.083.087-.284 1.538-.467 3.893-.47 6.539l.002.583c.04 4.449.588 7.973 1.258 7.973z" opacity=".091"/>
    <linearGradient id="n" x1="6.64" x2="35.625" y1="31.075" y2="31.075" gradientUnits="userSpaceOnUse">
      <stop offset="0" stop-color="#eeac13"/>
      <stop offset=".519" stop-color="#f9c723" stop-opacity=".583"/>
      <stop offset=".999" stop-color="#f9c621"/>
    </linearGradient>
    <path fill="url(#n)" d="M7.901 36.255h2.321c1.956 0 3.79.886 5.057 2.376.688.809 1.519 1.463 2.458 1.837 1.244.495 4.927.691 8.514.76.354.007.707.012 1.056.017 2.352.029 4.523.007 5.655-.006 1.035-.011 1.722-.075 1.818-.156.295-.04.574-.144.837-.277.029-.239-.047-.501-.098-.825-.028-.178-.064-.673-.165-1.373-1.309.016-3.227.028-5.268.004-.983-.012-1.994-.032-2.979-.064-2.399-.079-4.643-.229-5.936-.506a5.137 5.137 0 01-.969-.297 6.075 6.075 0 01-1.585-1.045 13.248 13.248 0 01-.873-.869 6.662 6.662 0 00-3.585-2.047c-.421-.107-1.166-.163-1.61-.163h-.612c-.05 0-1.497-.106-1.534-.287-.532-.28-.97-2.894-1.091-6.348a58.607 58.607 0 01-.028-2.314 47.83 47.83 0 01.163-3.588 9.252 9.252 0 01-.57-.113c.006-.028-.324-.053-.317-.077h-.396c-.038 0-1.001.063-1.033.173-.294 1.517-.485 3.894-.491 6.578 0 .196 0 .392.002.587.036 4.471.586 8.023 1.259 8.023z" opacity=".182"/>
    <linearGradient id="o" x1="6.459" x2="35.588" y1="31.166" y2="31.166" gradientUnits="userSpaceOnUse">
      <stop offset="0" stop-color="#edab14"/>
      <stop offset=".519" stop-color="#f7c321" stop-opacity=".629"/>
      <stop offset=".999" stop-color="#f7c220"/>
    </linearGradient>
    <path fill="url(#o)" d="M7.719 36.437h2.321c1.956 0 3.79.886 5.057 2.376.688.809 1.519 1.463 2.458 1.837 1.255.5 4.993.695 8.608.761.358.007.715.012 1.069.016 2.463.028 4.707.002 5.713-.01.996-.009 1.68-.098 1.823-.22.291-.06.564-.181.819-.332-.025-.178-.107-.401-.258-.678 0-.16-.133-.596-.345-1.218-1.317.016-3.248.028-5.301.003-.99-.012-2.008-.033-2.999-.065-2.438-.081-4.708-.235-5.965-.527a4.92 4.92 0 01-.966-.318 6.178 6.178 0 01-1.578-1.079c-.3-.28-.595-.573-.88-.874a6.639 6.639 0 00-3.644-1.982c-.374-.095-1.224-.145-1.619-.145h-.614c-.075 0-1.389-.16-1.445-.431-.509-.42-.921-3.024-1.028-6.411a58.052 58.052 0 01-.019-2.331 46.08 46.08 0 01.184-3.61 18.899 18.899 0 01-.489-.191c.009-.042-.28-.08-.271-.116h-.397c-.057 0-.935.094-.983.26-.303 1.496-.503 3.896-.512 6.617-.001.197 0 .394.001.59.033 4.497.585 8.078 1.26 8.078z" opacity=".273"/>
    <linearGradient id="p" x1="6.277" x2="35.557" y1="31.256" y2="31.256" gradientUnits="userSpaceOnUse">
      <stop offset="0" stop-color="#ecaa14"/>
      <stop offset=".519" stop-color="#f5bf20" stop-opacity=".675"/>
      <stop offset=".999" stop-color="#f5be1f"/>
    </linearGradient>
    <path fill="url(#p)" d="M7.538 36.619h2.321c1.956 0 3.79.886 5.057 2.376.688.809 1.519 1.463 2.458 1.837 1.266.504 5.058.698 8.701.763.363.006.724.012 1.081.016 2.575.028 4.89-.003 5.771-.013.957-.008 1.637-.121 1.828-.283.287-.08.555-.219.801-.387a7.584 7.584 0 00-.418-.531c0-.14-.202-.52-.524-1.062-1.325.016-3.27.028-5.334.003-.997-.012-2.023-.033-3.019-.067-2.478-.084-4.773-.244-5.994-.548-.376-.094-.7-.21-.963-.34a6.314 6.314 0 01-1.57-1.113 43.255 43.255 0 01-.888-.879 6.61 6.61 0 00-3.703-1.917c-.328-.083-1.283-.127-1.629-.127H10.9c-.099 0-1.281-.213-1.356-.575-.485-.561-.872-3.154-.966-6.475a57.394 57.394 0 01-.009-2.349 44.46 44.46 0 01.205-3.633c-.136-.091-.272-.18-.409-.269.012-.055-.237-.107-.224-.154h-.4c-.076 0-.869.125-.933.346-.312 1.475-.521 3.898-.532 6.656-.001.198-.001.396.001.593.029 4.523.582 8.132 1.261 8.132z" opacity=".364"/>
    <linearGradient id="q" x1="6.095" x2="35.526" y1="31.347" y2="31.347" gradientUnits="userSpaceOnUse">
      <stop offset="0" stop-color="#eba814"/>
      <stop offset=".519" stop-color="#f3ba1e" stop-opacity=".722"/>
      <stop offset=".999" stop-color="#f3ba1d"/>
    </linearGradient>
    <path fill="url(#q)" d="M7.356 36.801h2.321c1.956 0 3.79.886 5.057 2.376.688.809 1.519 1.463 2.458 1.837 1.277.508 5.124.701 8.795.764l1.094.015c2.686.027 5.074-.008 5.829-.017.919-.007 1.594-.144 1.832-.347.283-.1.545-.256.783-.441a2.577 2.577 0 01-.577-.384c0-.12-.271-.443-.704-.906-1.334.016-3.292.028-5.368.002a146.242 146.242 0 01-3.039-.068c-2.517-.087-4.838-.252-6.024-.569a4.801 4.801 0 01-.96-.361 6.424 6.424 0 01-1.562-1.146l-.895-.884a6.594 6.594 0 00-3.763-1.852c-.281-.071-1.342-.109-1.638-.109h-.617c-.124 0-1.173-.266-1.267-.718-.462-.701-.829-3.285-.903-6.538a54.888 54.888 0 010-2.366c.03-1.363.111-2.604.227-3.655-.11-.121-.219-.236-.328-.348.015-.069-.193-.134-.177-.193h-.399c-.095 0-.803.156-.882.433-.322 1.453-.538 3.899-.553 6.695v.597c.024 4.546.579 8.183 1.26 8.183z" opacity=".455"/>
    <linearGradient id="r" x1="5.913" x2="35.496" y1="31.438" y2="31.438" gradientUnits="userSpaceOnUse">
      <stop offset="0" stop-color="#eaa714"/>
      <stop offset=".519" stop-color="#f0b61d" stop-opacity=".768"/>
      <stop offset=".999" stop-color="#f0b51c"/>
    </linearGradient>
    <path fill="url(#r)" d="M7.174 36.982h2.321c1.956 0 3.79.886 5.057 2.376.688.809 1.519 1.463 2.458 1.837 1.287.513 5.19.705 8.889.766l1.106.015c2.797.027 5.258-.015 5.888-.021.88-.008 1.518-.212 1.837-.41.258-.16.536-.294.765-.496-.188.003-.435-.064-.737-.237 0-.1-.34-.367-.883-.75a227.55 227.55 0 01-5.401.002 141.308 141.308 0 01-3.059-.07c-2.556-.09-4.902-.261-6.053-.591a4.845 4.845 0 01-.956-.382 6.52 6.52 0 01-1.555-1.18 35.996 35.996 0 00-.902-.889 6.584 6.584 0 00-3.822-1.788c-.234-.059-1.401-.09-1.647-.09h-.618c-.149 0-1.065-.319-1.178-.862-.438-.841-.78-3.415-.841-6.602a54.065 54.065 0 01.009-2.384c.036-1.381.125-2.632.248-3.677-.083-.15-.166-.292-.248-.426.019-.083-.149-.16-.13-.231H7.32c-.114 0-.737.188-.832.52-.331 1.432-.556 3.901-.574 6.735a60 60 0 000 .6c.02 4.57.577 8.235 1.26 8.235z" opacity=".545"/>
    <linearGradient id="s" x1="5.732" x2="35.465" y1="31.529" y2="31.529" gradientUnits="userSpaceOnUse">
      <stop offset="0" stop-color="#e9a514"/>
      <stop offset=".519" stop-color="#eeb11b" stop-opacity=".815"/>
      <stop offset=".999" stop-color="#eeb11a"/>
    </linearGradient>
    <path fill="url(#s)" d="M6.992 37.164h2.321c1.956 0 3.79.886 5.057 2.376.688.809 1.519 1.463 2.458 1.837 1.298.517 5.255.708 8.983.768.376.006.75.011 1.119.014 2.909.027 5.442-.02 5.946-.025.842-.007 1.477-.23 1.842-.474.257-.172.526-.332.747-.551-.242.063-.545.049-.897-.09 0-.08-.409-.29-1.063-.594-1.35.016-3.336.028-5.434.001-1.02-.013-2.066-.036-3.078-.072-2.595-.092-4.967-.27-6.083-.612a4.877 4.877 0 01-.953-.403 6.615 6.615 0 01-1.547-1.214 18.683 18.683 0 00-.91-.893 6.571 6.571 0 00-3.881-1.723c-.187-.047-1.459-.072-1.657-.072h-.62c-.174 0-.958-.373-1.089-1.006-.414-.981-.725-3.545-.778-6.666a56.203 56.203 0 01.018-2.401c.042-1.399.138-2.66.269-3.699-.057-.18-.113-.348-.167-.504.022-.097-.106-.187-.083-.27h-.403c-.133 0-.671.219-.782.606-.341 1.411-.574 3.903-.594 6.774-.001.201-.002.402-.001.604.016 4.596.574 8.289 1.26 8.289z" opacity=".636"/>
    <linearGradient id="t" x1="5.55" x2="35.434" y1="31.62" y2="31.62" gradientUnits="userSpaceOnUse">
      <stop offset="0" stop-color="#e8a414"/>
      <stop offset=".519" stop-color="#ecad1a" stop-opacity=".861"/>
      <stop offset=".999" stop-color="#ecad19"/>
    </linearGradient>
    <path fill="url(#t)" d="M6.81 37.346h2.321c1.956 0 3.79.886 5.057 2.376.688.809 1.519 1.463 2.458 1.837 1.309.521 5.321.711 9.076.769.381.006.759.01 1.131.014 3.02.026 5.626-.025 6.004-.028.803-.006 1.439-.246 1.846-.537.256-.183.516-.369.729-.606a1.644 1.644 0 01-1.057.057c0-.06-.478-.214-1.242-.439-1.359.016-3.358.028-5.467 0-1.027-.014-2.08-.037-3.098-.073-2.635-.095-5.032-.279-6.112-.633a4.975 4.975 0 01-.95-.424 6.718 6.718 0 01-1.54-1.248 12.728 12.728 0 00-.917-.898 6.569 6.569 0 00-3.94-1.658c-.14-.036-1.518-.054-1.666-.054h-.62c-.199 0-.85-.426-1-1.149-.391-1.121-.676-3.676-.716-6.729-.008-.823.001-1.635.027-2.418a38.34 38.34 0 01.29-3.722l-.087-.582c.025-.111-.062-.214-.036-.308h-.403c-.152 0-.605.25-.732.693-.35 1.39-.592 3.905-.615 6.813-.002.201-.002.404-.002.607.013 4.619.573 8.34 1.261 8.34z" opacity=".727"/>
    <linearGradient id="u" x1="5.368" x2="35.404" y1="31.712" y2="31.712" gradientUnits="userSpaceOnUse">
      <stop offset="0" stop-color="#e7a315"/>
      <stop offset=".519" stop-color="#eaa918" stop-opacity=".907"/>
      <stop offset=".999" stop-color="#eaa918"/>
    </linearGradient>
    <path fill="url(#u)" d="M6.629 37.528H8.95c1.956 0 3.79.886 5.057 2.376.688.809 1.519 1.463 2.458 1.837 1.32.526 5.386.714 9.17.771.385.006.768.01 1.144.013 3.132.026 5.81-.03 6.062-.032.764-.006 1.402-.26 1.851-.601.257-.195.507-.407.712-.66a1.952 1.952 0 01-1.217.204c-.001-.04-.547-.137-1.422-.283-1.367.016-3.379.028-5.5 0a133.807 133.807 0 01-3.118-.075c-2.674-.098-5.096-.288-6.141-.654a5.088 5.088 0 01-.947-.445 6.797 6.797 0 01-1.532-1.282c-.29-.322-.599-.624-.924-.903a6.566 6.566 0 00-4-1.593c-.094-.024-1.577-.036-1.675-.036h-.624c-.224 0-.742-.479-.911-1.293-.367-1.261-.627-3.806-.654-6.793-.005-.835.007-1.653.036-2.436.054-1.435.164-2.717.312-3.744-.004-.239-.006-.46-.006-.661.028-.125-.018-.24.011-.347h-.405c-.171 0-.539.281-.681.779-.36 1.369-.61 3.906-.636 6.852-.002.202-.003.406-.002.611.008 4.646.569 8.395 1.261 8.395z" opacity=".818"/>
    <linearGradient id="v" x1="5.186" x2="35.373" y1="31.803" y2="31.803" gradientUnits="userSpaceOnUse">
      <stop offset="0" stop-color="#e6a115"/>
      <stop offset=".519" stop-color="#e7a417" stop-opacity=".954"/>
      <stop offset=".999" stop-color="#e7a416"/>
    </linearGradient>
    <path fill="url(#v)" d="M6.447 37.71h2.321c1.956 0 3.79.886 5.057 2.376.688.809 1.519 1.463 2.458 1.837 1.331.53 5.452.718 9.264.772.39.006.776.01 1.156.013 3.243.025 5.993-.035 6.12-.036a2.982 2.982 0 001.856-.665c.257-.208.497-.444.694-.715a2.337 2.337 0 01-1.376.351c-.001-.02-.616-.061-1.601-.127-1.375.016-3.401.028-5.533-.001a135.116 135.116 0 01-3.138-.076c-2.713-.1-5.16-.299-6.171-.675a5.183 5.183 0 01-.944-.467 6.875 6.875 0 01-1.525-1.315 8.147 8.147 0 00-.932-.908 6.572 6.572 0 00-4.059-1.528 78.673 78.673 0 00-1.685-.018h-.625c-.248 0-.634-.532-.822-1.437-.344-1.402-.578-3.936-.591-6.856-.003-.847.013-1.671.045-2.453.06-1.454.177-2.746.333-3.766.022-.269.047-.516.074-.739.031-.138.025-.267.058-.385h-.405c-.19 0-.473.313-.631.866-.369 1.348-.627 3.908-.657 6.891-.002.203-.003.408-.003.614.005 4.669.568 8.447 1.262 8.447z" opacity=".909"/>
    <path fill="#e5a015" d="M33.806 41.851c-.001 0-3.507.08-7.347.027s-8.016-.24-9.358-.774c-.939-.374-1.77-1.028-2.458-1.837-1.267-1.489-3.102-2.376-5.057-2.376H7.265c-.697 0-1.261-3.806-1.261-8.5 0-3.249.271-6.069.668-7.5h-.407c-.697 0-1.261 3.806-1.261 8.5s.565 8.5 1.261 8.5h2.321c1.956 0 3.79.886 5.057 2.376.688.809 1.519 1.463 2.458 1.837 1.342.534 5.517.721 9.358.774s7.346-.027 7.347-.027c1.027 0 1.968-.628 2.536-1.498-.459.304-.982.498-1.536.498z"/>
  </g>
  <radialGradient id="w" cx="32.743" cy="41.424" r="6.616" gradientTransform="matrix(1 0 0 .5087 0 20.353)" gradientUnits="userSpaceOnUse">
    <stop offset="0" stop-color="#ffe16e"/>
    <stop offset=".629" stop-color="#ffd226"/>
    <stop offset=".75" stop-color="#fdcd23"/>
    <stop offset=".899" stop-color="#f6bd1b"/>
    <stop offset=".999" stop-color="#f0af13"/>
  </radialGradient>
  <path fill="url(#w)" d="M39.084 39.259a3.532 3.532 0 00-3.976-3.021 3.51 3.51 0 00-1.943.938l-2.966 1.33a1.78 1.78 0 00-.364.011c-1.123.165-1.898 1.358-1.731 2.664.155 1.215 1.071 2.088 2.102 2.072l5.6-.01c.086-.005.171.003.258-.009a3.529 3.529 0 003.02-3.975z"/>
  <radialGradient id="x" cx="34.347" cy="36.433" r="7.645" gradientTransform="matrix(1 0 0 .5286 0 17.176)" gradientUnits="userSpaceOnUse">
    <stop offset="0" stop-color="#ffe16e"/>
    <stop offset=".629" stop-color="#ffd226"/>
    <stop offset=".75" stop-color="#fdcd23"/>
    <stop offset=".899" stop-color="#f6bd1b"/>
    <stop offset=".999" stop-color="#f0af13"/>
  </radialGradient>
  <path fill="url(#x)" d="M41.606 34.13a4.12 4.12 0 00-4.586-3.592 4.08 4.08 0 00-2.337 1.119l-4.564 1.194c-1.315.275-2.226 1.669-2.053 3.218.169 1.511 1.309 2.607 2.606 2.589l6.976.065c.122-.004.241.008.364-.007a4.118 4.118 0 003.594-4.586z"/>
  <radialGradient id="y" cx="35.301" cy="31.07" r="8.281" gradientTransform="matrix(1 0 0 .5643 0 13.538)" gradientUnits="userSpaceOnUse">
    <stop offset="0" stop-color="#ffe16e"/>
    <stop offset=".629" stop-color="#ffd226"/>
    <stop offset=".75" stop-color="#fdcd23"/>
    <stop offset=".899" stop-color="#f6bd1b"/>
    <stop offset=".999" stop-color="#f0af13"/>
  </radialGradient>
  <path fill="url(#y)" d="M42.775 28.183a4.12 4.12 0 00-4.622-3.545c-.128.017-6.974 2.357-6.974 2.357-1.344.258-2.268 1.682-2.075 3.251.177 1.436 1.228 2.496 2.447 2.57 0 0 7.507.012 7.679-.011a4.119 4.119 0 003.545-4.622z"/>
  <radialGradient id="z" cx="36.162" cy="23.325" r="7.303" gradientTransform="matrix(.9966 -.0821 .0536 .6507 -1.129 11.117)" gradientUnits="userSpaceOnUse">
    <stop offset="0" stop-color="#ffe16e"/>
    <stop offset=".629" stop-color="#ffd226"/>
    <stop offset=".75" stop-color="#fdcd23"/>
    <stop offset=".899" stop-color="#f6bd1b"/>
    <stop offset=".999" stop-color="#f0af13"/>
  </radialGradient>
  <path fill="url(#z)" d="M42.969 22.713a3.702 3.702 0 00-3.966-3.242s-.263.029-.316.038l-6.77 1.119c-1.298.3-2.191 1.755-2.014 3.377.172 1.579 1.294 2.733 2.576 2.744l6.854.1c.133-.002.263.008.398-.008a3.709 3.709 0 003.238-4.128z"/>
  <radialGradient id="A" cx="-474.791" cy="-149.465" r="3.355" gradientTransform="matrix(.2512 -1.2422 -1.8822 -.3806 -143.646 -611.431)" gradientUnits="userSpaceOnUse">
    <stop offset=".425" stop-color="#ffe16e"/>
    <stop offset="1" stop-color="#ffe16e" stop-opacity="0"/>
  </radialGradient>
  <path fill="url(#A)" d="M19.367 30.592c-3.965-.802-7.6.626-8.118 3.188-.518 2.562 2.276 5.29 6.242 6.091s7.6-.626 8.118-3.188c.518-2.562-2.276-5.289-6.242-6.091z" opacity=".59"/>
  <linearGradient id="B" x1="38.602" x2="29.578" y1="27.344" y2="39.093" gradientTransform="scale(-1 1) rotate(-80.166 0 62.748)" gradientUnits="userSpaceOnUse">
    <stop offset="0" stop-color="#ffdb53" stop-opacity="0"/>
    <stop offset=".605" stop-color="#f6c02d"/>
    <stop offset=".999" stop-color="#f2b416" stop-opacity=".636"/>
  </linearGradient>
  <path fill="url(#B)" d="M27.384 18.289a16.856 16.856 0 01-1.719 5.474 17.352 17.352 0 01-1.999 3.061c-1.296 1.583-2.926 2.968-4.778 3.873-.626.306-1.282.547-1.953.73-.613.166-1.403.427-2.044.335a.89.89 0 01-.511-.148.578.578 0 01-.249-.389l-.004-.04c-.017-.342.31-.636.758-.654 3.705-.198 7.499-3.067 9.682-7.329a15.493 15.493 0 001.632-5.441l1.185.528z" opacity=".59"/>
  <radialGradient id="C" cx="-480.41" cy="-158.999" r="3.355" gradientTransform="matrix(.7379 .8683 -1.4406 1.2243 143.052 635.913)" gradientUnits="userSpaceOnUse">
    <stop offset=".425" stop-color="#ffe16e"/>
    <stop offset="1" stop-color="#ffe16e" stop-opacity="0"/>
  </radialGradient>
  <path fill="url(#C)" d="M20.37 27.361c-3.035 2.579-6.729 3.218-8.252 1.427-1.522-1.791-.296-5.334 2.739-7.913s6.729-3.218 8.252-1.427.296 5.334-2.739 7.913z" opacity=".72"/>
  <radialGradient id="D" cx="-465.313" cy="-159.6" r="3.355" gradientTransform="matrix(0 -.6907 -1.5532 0 -211.365 -298.144)" gradientUnits="userSpaceOnUse">
    <stop offset=".425" stop-color="#ffe16e"/>
    <stop offset="1" stop-color="#ffe16e" stop-opacity="0"/>
  </radialGradient>
  <ellipse cx="36.522" cy="23.251" fill="url(#D)" opacity=".5" rx="5.925" ry="2.58"/>
  <radialGradient id="E" cx="-474.832" cy="-158.806" r="3.355" gradientTransform="matrix(0 -.6053 -1.5532 0 -211.088 -257.293)" gradientUnits="userSpaceOnUse">
    <stop offset=".425" stop-color="#ffe16e"/>
    <stop offset="1" stop-color="#ffe16e" stop-opacity="0"/>
  </radialGradient>
  <ellipse cx="35.566" cy="30.144" fill="url(#E)" opacity=".5" rx="5.925" ry="2.261"/>
  <radialGradient id="F" cx="-484.48" cy="-157.932" r="3.355" gradientTransform="matrix(0 -.6053 -1.5532 0 -210.783 -257.293)" gradientUnits="userSpaceOnUse">
    <stop offset=".425" stop-color="#ffe16e"/>
    <stop offset="1" stop-color="#ffe16e" stop-opacity="0"/>
  </radialGradient>
  <ellipse cx="34.513" cy="35.984" fill="url(#F)" opacity=".5" rx="5.925" ry="2.261"/>
  <radialGradient id="G" cx="-492.595" cy="-156.829" r="2.404" gradientTransform="matrix(0 -.6053 -1.5532 0 -210.398 -257.293)" gradientUnits="userSpaceOnUse">
    <stop offset=".425" stop-color="#ffe16e"/>
    <stop offset="1" stop-color="#ffe16e" stop-opacity="0"/>
  </radialGradient>
  <ellipse cx="33.184" cy="40.896" fill="url(#G)" opacity=".5" rx="4.245" ry="1.62"/>
</svg>
